# xmcd CD database file
#
# Track frame offsets:
#	150
#	12550
#	24092
#	36589
#	49386
#	62594
#	73315
#	86917
#	97810
#	111411
#	125440
#	137148
#	150638
#	164057
#	175110
#	189883
#	200965
#	214525
#	227140
#	239803
#	249326
#	262077
#	273580
#	282540
#	295035
#	306875
#	318711
#
# Disc length: 4423 seconds
#
# Revision: 0
# Processed by: cddbd v1.5.2PL0 Copyright (c) Steve Scherf et al.
# Submitted via: CDex 2.03
#
DISCID=a911451b
DTITLE=Etta James - Something's Got A Hold On Me - Complete 1960-1962 Chess and Argo Singles
DYEAR=2016
DGENRE=Blues
TTITLE0=If I Can't Have You
TTITLE1=My Heart Cries
TTITLE2=Spoonful
TTITLE3=It's A Crying Shame
TTITLE4=All I Could Do Was Cry
TTITLE5=Girl Of My Dreams (Boy Of My Dreams)
TTITLE6=My Dearest Darling
TTITLE7=Tough Mary
TTITLE8=At Last
TTITLE9=Just Want To Make Love To You
TTITLE10=Anything To Say You're Mine
TTITLE11=Trust In Me
TTITLE12=Fool That I Am
TTITLE13=Dream
TTITLE14=Sunday Kind Of Love
TTITLE15=Don't Cry Baby
TTITLE16=Seven Day Fool
TTITLE17=It's Too Soon To Know
TTITLE18=Something's Got A Hold On Me
TTITLE19=Waiting For Charlie (To Come Home)
TTITLE20=Stop The Wedding
TTITLE21=Street Of Tears
TTITLE22=Fools Rush In
TTITLE23=Next Door To The Blues
TTITLE24=How Do You Speak To An Angel
TTITLE25=Would It Make Any Difference To You
TTITLE26=Pushover
EXTD=YEAR: 2016
EXTT0=
EXTT1=
EXTT2=
EXTT3=
EXTT4=
EXTT5=
EXTT6=
EXTT7=
EXTT8=
EXTT9=
EXTT10=
EXTT11=
EXTT12=
EXTT13=
EXTT14=
EXTT15=
EXTT16=
EXTT17=
EXTT18=
EXTT19=
EXTT20=
EXTT21=
EXTT22=
EXTT23=
EXTT24=
EXTT25=
EXTT26=
PLAYORDER=
